{
  "accessors": [
    {
      "bufferView": 2,
      "componentType": 5126,
      "count": 10944,
      "max": [
        137.75093078613281,
        275.67160034179688,
        106.10140228271484
      ],
      "min": [
        -138.08726501464844,
        -11.221674919128418,
        -102.35150146484375
      ],
      "type": "VEC3"
    },
    {
      "bufferView": 2,
      "byteOffset": 131328,
      "componentType": 5126,
      "count": 10944,
      "max": [
        1,
        0.99934273958206177,
        0.99997574090957642
      ],
      "min": [
        -1,
        -1,
        -0.99999594688415527
      ],
      "type": "VEC3"
    },
    {
      "bufferView": 3,
      "componentType": 5126,
      "count": 10944,
      "max": [
        0.99995100498199463,
        0.99997788667678833,
        0.99999606609344482,
        1
      ],
      "min": [
        -0.99999988079071045,
        -0.99995899200439453,
        -0.79364359378814697,
        -1
      ],
      "type": "VEC4"
    },
    {
      "bufferView": 1,
      "componentType": 5126,
      "count": 10944,
      "max": [
        0.98255860805511475,
        0.998046875
      ],
      "min": [
        0.001953131752088666,
        0.001953131752088666
      ],
      "type": "VEC2"
    },
    {
      "bufferView": 0,
      "componentType": 5125,
      "count": 62028,
      "max": [
        10943
      ],
      "min": [
        0
      ],
      "type": "SCALAR"
    }
  ],
  "asset": {
    "extras": {
      "author": "speike (https://sketchfab.com/speike.styles)",
      "license": "CC-BY-4.0 (http://creativecommons.org/licenses/by/4.0/)",
      "source": "https://sketchfab.com/3d-models/arc-tunnel-eb1d0d35e3124603bf292c0ba0144e36",
      "title": "Arc Tunnel"
    },
    "generator": "Sketchfab-8.49.0",
    "version": "2.0"
  },
  "bufferViews": [
    {
      "buffer": 0,
      "byteLength": 248112,
      "byteOffset": 0,
      "name": "floatBufferViews",
      "target": 34963
    },
    {
      "buffer": 0,
      "byteLength": 87552,
      "byteOffset": 248112,
      "byteStride": 8,
      "name": "floatBufferViews",
      "target": 34962
    },
    {
      "buffer": 0,
      "byteLength": 262656,
      "byteOffset": 335664,
      "byteStride": 12,
      "name": "floatBufferViews",
      "target": 34962
    },
    {
      "buffer": 0,
      "byteLength": 175104,
      "byteOffset": 598320,
      "byteStride": 16,
      "name": "floatBufferViews",
      "target": 34962
    }
  ],
  "buffers": [
    {
      "byteLength": 773424,
      "uri": "scene.bin"
    }
  ],
  "images": [
    {
      "uri": "textures/Volume10_baseColor.jpeg"
    },
    {
      "uri": "textures/Volume10_metallicRoughness.png"
    },
    {
      "uri": "textures/Volume10_normal.png"
    }
  ],
  "materials": [
    {
      "doubleSided": true,
      "emissiveFactor": [
        0,
        0,
        0
      ],
      "name": "Volume10",
      "normalTexture": {
        "index": 2,
        "scale": 1,
        "texCoord": 0
      },
      "pbrMetallicRoughness": {
        "baseColorFactor": [
          1,
          1,
          1,
          1
        ],
        "baseColorTexture": {
          "index": 0,
          "texCoord": 0
        },
        "metallicFactor": 1,
        "metallicRoughnessTexture": {
          "index": 1,
          "texCoord": 0
        },
        "roughnessFactor": 1
      }
    }
  ],
  "meshes": [
    {
      "name": "Volume10_Volume10_0",
      "primitives": [
        {
          "attributes": {
            "NORMAL": 1,
            "POSITION": 0,
            "TANGENT": 2,
            "TEXCOORD_0": 3
          },
          "indices": 4,
          "material": 0,
          "mode": 4
        }
      ]
    }
  ],
  "nodes": [
    {
      "children": [
        1
      ],
      "name": "RootNode (gltf orientation matrix)",
      "rotation": [
        -0.70710678118654746,
        -0,
        -0,
        0.70710678118654757
      ]
    },
    {
      "children": [
        2
      ],
      "matrix": [
        1.2771422863006592,
        0,
        0,
        0,
        0,
        1.2771422863006592,
        0,
        0,
        0,
        0,
        1.2771422863006592,
        0,
        0,
        0,
        0,
        1
      ],
      "name": "RootNode (model correction matrix)"
    },
    {
      "children": [
        3
      ],
      "matrix": [
        1,
        0,
        0,
        0,
        0,
        0,
        1,
        0,
        0,
        -1,
        0,
        0,
        0,
        0,
        0,
        1
      ],
      "name": "2a26c449ce244b85a28d2426e9f544f0.fbx"
    },
    {
      "children": [
        4
      ],
      "name": "RootNode"
    },
    {
      "children": [
        5
      ],
      "name": "Volume10"
    },
    {
      "mesh": 0,
      "name": "Volume10_Volume10_0"
    }
  ],
  "samplers": [
    {
      "magFilter": 9729,
      "minFilter": 9987,
      "wrapS": 10497,
      "wrapT": 10497
    }
  ],
  "scene": 0,
  "scenes": [
    {
      "name": "OSG_Scene",
      "nodes": [
        0
      ]
    }
  ],
  "textures": [
    {
      "sampler": 0,
      "source": 0
    },
    {
      "sampler": 0,
      "source": 1
    },
    {
      "sampler": 0,
      "source": 2
    }
  ]
}

